<mxfile host="app.diagrams.net" modified="2024-05-25T07:07:56.736Z" agent="Mozilla/5.0 (Macintosh; Intel Mac OS X 10_15_7) AppleWebKit/605.1.15 (KHTML, like Gecko) Version/15.3 Safari/605.1.15" etag="a0eVD8ABStJ6bMvDZznE" version="24.4.8" type="github">
  <diagram id="C5RBs43oDa-KdzZeNtuy" name="Page-1">
    <mxGraphModel dx="1197" dy="811" grid="1" gridSize="10" guides="1" tooltips="1" connect="1" arrows="1" fold="1" page="1" pageScale="1" pageWidth="827" pageHeight="1169" math="0" shadow="0">
      <root>
        <mxCell id="WIyWlLk6GJQsqaUBKTNV-0" />
        <mxCell id="WIyWlLk6GJQsqaUBKTNV-1" parent="WIyWlLk6GJQsqaUBKTNV-0" />
        <mxCell id="WIyWlLk6GJQsqaUBKTNV-3" value="Stock price API" style="rounded=1;whiteSpace=wrap;html=1;fontSize=12;glass=0;strokeWidth=1;shadow=0;" parent="WIyWlLk6GJQsqaUBKTNV-1" vertex="1">
          <mxGeometry x="44" y="230" width="120" height="40" as="geometry" />
        </mxCell>
        <mxCell id="Jl-Xm2Idm-wYFA7UDuuC-1" value="service retrieve data from API" style="rounded=1;whiteSpace=wrap;html=1;" vertex="1" parent="WIyWlLk6GJQsqaUBKTNV-1">
          <mxGeometry x="214" y="220" width="120" height="60" as="geometry" />
        </mxCell>
        <mxCell id="Jl-Xm2Idm-wYFA7UDuuC-2" value="Kakfa" style="shape=cylinder3;whiteSpace=wrap;html=1;boundedLbl=1;backgroundOutline=1;size=15;" vertex="1" parent="WIyWlLk6GJQsqaUBKTNV-1">
          <mxGeometry x="384" y="200" width="100" height="100" as="geometry" />
        </mxCell>
        <mxCell id="Jl-Xm2Idm-wYFA7UDuuC-3" value="calculator" style="rounded=1;whiteSpace=wrap;html=1;" vertex="1" parent="WIyWlLk6GJQsqaUBKTNV-1">
          <mxGeometry x="372" y="340" width="120" height="40" as="geometry" />
        </mxCell>
        <mxCell id="Jl-Xm2Idm-wYFA7UDuuC-10" style="edgeStyle=orthogonalEdgeStyle;rounded=0;orthogonalLoop=1;jettySize=auto;html=1;exitX=0.5;exitY=0;exitDx=0;exitDy=0;" edge="1" parent="WIyWlLk6GJQsqaUBKTNV-1" source="Jl-Xm2Idm-wYFA7UDuuC-4">
          <mxGeometry relative="1" as="geometry">
            <mxPoint x="600" y="220" as="targetPoint" />
          </mxGeometry>
        </mxCell>
        <mxCell id="Jl-Xm2Idm-wYFA7UDuuC-4" value="API endpoint to expose transomed stock data" style="rounded=1;whiteSpace=wrap;html=1;" vertex="1" parent="WIyWlLk6GJQsqaUBKTNV-1">
          <mxGeometry x="534" y="220" width="120" height="60" as="geometry" />
        </mxCell>
        <mxCell id="Jl-Xm2Idm-wYFA7UDuuC-6" value="" style="verticalLabelPosition=bottom;html=1;verticalAlign=top;align=center;strokeColor=none;fillColor=#00BEF2;shape=mxgraph.azure.laptop;pointerEvents=1;" vertex="1" parent="WIyWlLk6GJQsqaUBKTNV-1">
          <mxGeometry x="704" y="222.5" width="80" height="55" as="geometry" />
        </mxCell>
        <mxCell id="Jl-Xm2Idm-wYFA7UDuuC-11" value="" style="endArrow=classic;html=1;rounded=0;entryX=1;entryY=0.5;entryDx=0;entryDy=0;exitX=0;exitY=0.5;exitDx=0;exitDy=0;" edge="1" parent="WIyWlLk6GJQsqaUBKTNV-1" source="Jl-Xm2Idm-wYFA7UDuuC-1" target="WIyWlLk6GJQsqaUBKTNV-3">
          <mxGeometry width="50" height="50" relative="1" as="geometry">
            <mxPoint x="220" y="340" as="sourcePoint" />
            <mxPoint x="190" y="330" as="targetPoint" />
          </mxGeometry>
        </mxCell>
        <mxCell id="Jl-Xm2Idm-wYFA7UDuuC-12" value="" style="endArrow=classic;html=1;rounded=0;exitX=1;exitY=0.5;exitDx=0;exitDy=0;entryX=0;entryY=0.5;entryDx=0;entryDy=0;entryPerimeter=0;" edge="1" parent="WIyWlLk6GJQsqaUBKTNV-1" source="Jl-Xm2Idm-wYFA7UDuuC-1" target="Jl-Xm2Idm-wYFA7UDuuC-2">
          <mxGeometry width="50" height="50" relative="1" as="geometry">
            <mxPoint x="170" y="440" as="sourcePoint" />
            <mxPoint x="220" y="390" as="targetPoint" />
          </mxGeometry>
        </mxCell>
        <mxCell id="Jl-Xm2Idm-wYFA7UDuuC-13" value="" style="endArrow=classic;html=1;rounded=0;exitX=1;exitY=0.5;exitDx=0;exitDy=0;exitPerimeter=0;entryX=0;entryY=0.5;entryDx=0;entryDy=0;" edge="1" parent="WIyWlLk6GJQsqaUBKTNV-1" source="Jl-Xm2Idm-wYFA7UDuuC-2" target="Jl-Xm2Idm-wYFA7UDuuC-4">
          <mxGeometry width="50" height="50" relative="1" as="geometry">
            <mxPoint x="390" y="310" as="sourcePoint" />
            <mxPoint x="440" y="260" as="targetPoint" />
          </mxGeometry>
        </mxCell>
        <mxCell id="Jl-Xm2Idm-wYFA7UDuuC-15" value="" style="endArrow=classic;html=1;rounded=0;exitX=0.75;exitY=0;exitDx=0;exitDy=0;entryX=0.855;entryY=1;entryDx=0;entryDy=-4.35;entryPerimeter=0;" edge="1" parent="WIyWlLk6GJQsqaUBKTNV-1" source="Jl-Xm2Idm-wYFA7UDuuC-3" target="Jl-Xm2Idm-wYFA7UDuuC-2">
          <mxGeometry width="50" height="50" relative="1" as="geometry">
            <mxPoint x="440" y="500" as="sourcePoint" />
            <mxPoint x="490" y="450" as="targetPoint" />
          </mxGeometry>
        </mxCell>
        <mxCell id="Jl-Xm2Idm-wYFA7UDuuC-16" value="" style="endArrow=classic;html=1;rounded=0;entryX=0.25;entryY=0;entryDx=0;entryDy=0;exitX=0.145;exitY=1;exitDx=0;exitDy=-4.35;exitPerimeter=0;" edge="1" parent="WIyWlLk6GJQsqaUBKTNV-1" source="Jl-Xm2Idm-wYFA7UDuuC-2" target="Jl-Xm2Idm-wYFA7UDuuC-3">
          <mxGeometry width="50" height="50" relative="1" as="geometry">
            <mxPoint x="40" y="510" as="sourcePoint" />
            <mxPoint x="90" y="460" as="targetPoint" />
          </mxGeometry>
        </mxCell>
        <mxCell id="Jl-Xm2Idm-wYFA7UDuuC-17" value="" style="endArrow=classic;html=1;rounded=0;exitX=1;exitY=0.5;exitDx=0;exitDy=0;entryX=0.08;entryY=0.5;entryDx=0;entryDy=0;entryPerimeter=0;" edge="1" parent="WIyWlLk6GJQsqaUBKTNV-1" source="Jl-Xm2Idm-wYFA7UDuuC-4" target="Jl-Xm2Idm-wYFA7UDuuC-6">
          <mxGeometry width="50" height="50" relative="1" as="geometry">
            <mxPoint x="690" y="220" as="sourcePoint" />
            <mxPoint x="740" y="170" as="targetPoint" />
          </mxGeometry>
        </mxCell>
      </root>
    </mxGraphModel>
  </diagram>
</mxfile>
